<svg width="717" height="525" viewBox="0 0 717 525" fill="none" xmlns="http://www.w3.org/2000/svg">
<rect width="717" height="525" fill="#E5E5E5"/>
<g id="campaign_launch_monochromatic 1" clip-path="url(#clip0)">
<g id="Vector">
<path d="M310.509 27.5717C304.905 30.3187 299.401 33.2947 293.994 36.562C230.787 74.6462 186.552 146.132 117.349 169.878C98.6132 176.308 78.501 178.077 63.3628 192.145C52.4404 202.697 42.9349 214.783 35.1114 228.065C18.5693 255.589 7.59134 286.44 2.86903 318.676C-6.58742 381.11 6.64375 451.409 53.5722 494.176C88.8422 526.35 141.334 527.973 185.51 519.274C210.852 514.3 235.132 504.602 260.218 498.213C304.077 487.088 349.701 486.229 393.906 495.695C423.062 501.938 451.235 512.698 480.41 519.295C501.368 524.061 523.19 526.704 544.58 523.769C565.106 520.96 580.932 510.596 599.628 502.23C635.193 486.268 671.191 465.914 693.859 431.597C711.296 404.705 719.352 372.229 716.645 339.737C713.695 307.295 701.153 276.665 680.805 252.206C671.781 241.218 659.985 231.52 655.581 217.535C651.177 203.55 650.489 187.234 649.113 172.895C646.124 141.45 642.546 109.109 628.076 81.4723C611.995 50.7552 583.507 28.7579 552.425 16.3753C521.342 3.99278 487.743 0.454909 454.538 0.0386882C405.368 -0.481588 354.901 5.76172 310.509 27.5717Z" fill="#68E1FD"/>
<path d="M310.509 27.5717C304.905 30.3187 299.401 33.2947 293.994 36.562C230.787 74.6462 186.552 146.132 117.349 169.878C98.6132 176.308 78.501 178.077 63.3628 192.145C52.4404 202.697 42.9349 214.783 35.1114 228.065C18.5693 255.589 7.59134 286.44 2.86903 318.676C-6.58742 381.11 6.64375 451.409 53.5722 494.176C88.8422 526.35 141.334 527.973 185.51 519.274C210.852 514.3 235.132 504.602 260.218 498.213C304.077 487.088 349.701 486.229 393.906 495.695C423.062 501.938 451.235 512.698 480.41 519.295C501.368 524.061 523.19 526.704 544.58 523.769C565.106 520.96 580.932 510.596 599.628 502.23C635.193 486.268 671.191 465.914 693.859 431.597C711.296 404.705 719.352 372.229 716.645 339.737C713.695 307.295 701.153 276.665 680.805 252.206C671.781 241.218 659.985 231.52 655.581 217.535C651.177 203.55 650.489 187.234 649.113 172.895C646.124 141.45 642.546 109.109 628.076 81.4723C611.995 50.7552 583.507 28.7579 552.425 16.3753C521.342 3.99278 487.743 0.454909 454.538 0.0386882C405.368 -0.481588 354.901 5.76172 310.509 27.5717Z" fill="url(#paint0_linear)"/>
</g>
<path id="Vector_2" d="M91.8712 379.031L286.191 289.544C290.399 287.308 295.149 286.474 299.815 287.151L540.158 308.773C544.759 309.46 543.933 330.396 540.158 333.747L398.213 461.651C393.938 465.646 388.82 468.498 383.289 469.968C377.758 471.438 371.974 471.484 366.423 470.1L93.5816 399.863C90.1018 398.968 88.6076 380.738 91.8712 379.031Z" fill="url(#paint1_linear)"/>
<path id="Vector_3" d="M540.217 318.908L398.272 446.813C394 450.815 388.883 453.672 383.352 455.146C377.82 456.62 372.034 456.667 366.482 455.283L93.5815 385.025C90.1017 384.13 89.6496 378.303 92.8935 376.576L167.68 331.894L187.34 320.199L247.126 284.633C251.335 282.396 256.085 281.561 260.75 282.239L537.799 307.754C542.4 308.336 543.933 315.558 540.217 318.908Z" fill="#68E1FD"/>
<path id="Vector_4" d="M260.731 289.211L513.971 328.856L436.019 395.868L176.134 340.198L260.731 289.211Z" fill="url(#paint2_linear)"/>
<path id="Vector_5" d="M234.229 356.805L338.584 379.135L284.618 425.731L176.134 399.967L234.229 356.805Z" fill="url(#paint3_linear)"/>
<path id="Vector_6" d="M182.052 408.042C183.119 410.311 184.629 412.314 186.483 413.918C188.337 415.521 190.492 416.69 192.806 417.345C200.473 419.301 245.16 431.413 245.16 431.413C245.16 431.413 252.434 432.328 256.465 427.251L182.052 408.042Z" fill="url(#paint4_linear)"/>
<path id="Vector_7" d="M252.788 282.114L538.605 325.172C540.7 325.481 542.827 324.932 544.552 323.636C546.277 322.34 547.469 320.396 547.885 318.201L588.66 100.247C589.096 97.9207 589.065 95.5233 588.567 93.2109C588.07 90.8985 587.118 88.723 585.773 86.8262C584.428 84.9294 582.721 83.3539 580.762 82.2024C578.804 81.051 576.638 80.3493 574.406 80.1433L292.147 53.9422C287.993 53.557 283.862 54.9099 280.639 57.7109C277.416 60.5118 275.358 64.538 274.906 68.9262L252.788 282.114Z" fill="#68E1FD"/>
<path id="Vector_8" d="M252.788 282.114L537.858 325.048C540.161 325.393 542.502 324.792 544.399 323.367C546.297 321.943 547.607 319.804 548.062 317.389L588.66 100.247C589.096 97.9207 589.065 95.5233 588.567 93.2109C588.07 90.8985 587.118 88.723 585.773 86.8262C584.428 84.9294 582.721 83.3539 580.762 82.2024C578.804 81.051 576.638 80.3493 574.406 80.1433L292.147 53.9422C287.993 53.557 283.862 54.9099 280.639 57.7109C277.416 60.5118 275.358 64.538 274.906 68.9262L252.788 282.114Z" fill="url(#paint5_linear)"/>
<path id="Vector_9" d="M533.435 312.644L574.033 92.7339L286.191 64.5974L263.306 272.812L533.435 312.644Z" fill="white"/>
<path id="Vector_10" d="M509.764 132.712L307.875 110.465L312.456 83.4106L514.404 105.658C516.11 105.775 517.775 106.27 519.289 107.112C520.803 107.953 522.133 109.122 523.194 110.543C524.254 111.963 525.02 113.603 525.443 115.358C525.866 117.112 525.936 118.94 525.649 120.725C524.875 124.451 522.821 127.74 519.886 129.954C516.951 132.169 513.344 133.152 509.764 132.712Z" fill="#0BC5F0"/>
<path id="Vector_11" opacity="0.56" d="M307.876 110.465L470.955 128.467L475.536 101.329L312.456 83.3066L307.876 110.465Z" fill="white"/>
<path id="Vector_12" d="M499.953 122.151C503.401 120.723 505.193 116.85 503.955 113.499C502.717 110.149 498.918 108.59 495.47 110.018C492.022 111.445 490.23 115.319 491.468 118.669C492.706 122.019 496.505 123.578 499.953 122.151Z" stroke="white" stroke-width="1.04" stroke-miterlimit="10"/>
<path id="Vector_13" d="M501.9 127.343C501.762 126.989 500.052 122.057 500.052 122.057" stroke="white" stroke-width="1.04" stroke-miterlimit="10"/>
<path id="Vector_14" opacity="0.18" d="M507.818 171.878L301.781 148.528L302.862 144.949L508.879 168.299L507.818 171.878Z" fill="#052F38"/>
<path id="Vector_15" opacity="0.18" d="M375.034 143.242L305.457 134.523L306.873 128.113L376.469 136.146L375.034 143.242Z" fill="#09313A"/>
<path id="Vector_16" opacity="0.18" d="M505.262 186.3L299.225 162.95L300.287 159.371L506.323 182.721L505.262 186.3Z" fill="#042932"/>
<path id="Vector_17" opacity="0.18" d="M363.965 200.847L294.389 192.148L295.804 185.718L365.401 193.751L363.965 200.847Z" fill="#042B34"/>
<path id="Vector_18" opacity="0.18" d="M496.199 230.774L290.162 207.424L291.243 203.823L497.28 227.194L496.199 230.774Z" fill="#021317"/>
<path id="Vector_19" opacity="0.18" d="M491.5 247.464L285.463 224.114L286.544 220.535L492.561 243.885L491.5 247.464Z" fill="#082126"/>
<path id="Vector_20" opacity="0.18" d="M487.509 283.53L281.688 255.081L282.75 251.522L488.57 279.971L487.509 283.53Z" fill="#68E1FD"/>
</g>
<g id="shadow">
<path id="Vector_21" d="M517.038 336.098C516.291 338.492 513.834 339.719 511.612 340.656C495.416 347.087 478.904 352.59 462.147 357.138C446.243 361.779 429.65 366.462 413.41 363.382C411.372 362.82 409.256 362.637 407.158 362.84C403.698 363.506 401.143 366.482 398.449 368.834C385.021 380.53 365.401 377.866 348.296 374.578C349.036 368.609 349.404 362.596 349.397 356.576C303.649 357.447 257.915 354.146 212.701 346.712C202.871 345.109 176.311 343.84 169.607 335.203C168.778 334.25 168.113 333.152 167.641 331.957L187.301 320.261C188.192 320.302 189.075 320.449 189.935 320.698C242.247 336.054 296.617 342.033 350.793 338.387C352.189 330.916 344.895 321.572 350.439 316.619C352.264 315.245 354.474 314.563 356.711 314.684C365.011 314.342 373.263 316.172 380.735 320.011C385.159 322.301 389.327 325.297 394.104 326.588C398.779 327.57 403.574 327.731 408.299 327.066C438.461 324.677 468.725 324.066 498.951 325.235C503.925 325.422 509.135 325.734 513.362 328.502C515.839 330.084 517.982 333.164 517.038 336.098Z" fill="url(#paint6_linear)"/>
</g>
<g id="rocket">
<path id="Vector_22" d="M373.304 262.51C373.304 262.51 162.745 336.306 133.963 270.065C105.181 203.823 262.795 185.676 262.795 185.676C262.795 185.676 78.6203 205.093 119.946 286.922C161.271 368.751 385.867 287.837 385.867 287.837L373.304 262.51Z" fill="white"/>
<path id="Vector_23" d="M373.795 259.451C373.884 262.483 374.666 265.447 376.076 268.088L381.266 279.825C382.373 282.746 383.927 285.453 385.867 287.837C387.386 289.462 389.246 290.686 391.295 291.409C393.345 292.132 395.526 292.334 397.663 292C398.671 291.929 399.645 291.586 400.492 291.003C401.339 290.42 402.03 289.617 402.499 288.67C403.384 286.235 401.89 283.634 400.69 281.365C397.466 275.267 396.09 268.317 394.556 261.532C393.377 256.246 390.978 248.796 384.884 248.047C379.497 247.381 374.11 253.895 373.795 259.451Z" fill="#68E1FD"/>
<path id="Vector_24" d="M426.681 232.105C426.681 232.105 382.131 188.964 338.584 232.105C338.584 232.105 372.242 227.506 382.623 247.131L426.681 232.105Z" fill="#68E1FD"/>
<path id="Vector_25" d="M444.886 271.542C444.886 271.542 442.763 335.432 383.173 338.138C383.173 338.138 409.852 315.932 403.895 294.33L444.886 271.542Z" fill="#68E1FD"/>
<path id="Vector_26" d="M382.623 247.173C382.623 247.173 523.093 161.847 602.068 175.499C602.068 175.499 584.216 236.934 403.836 294.33L382.623 247.173Z" fill="white"/>
<path id="Vector_27" d="M602.166 175.458C602.166 175.458 584.315 236.892 403.934 294.289L397.505 279.992L382.623 247.173C382.623 247.173 507.307 171.337 587.775 174.043C592.596 174.181 597.403 174.654 602.166 175.458V175.458Z" fill="url(#paint7_linear)"/>
<path id="Vector_28" d="M602.166 175.458C589.682 192.793 546.587 224.738 457.999 258.806C452.992 260.748 447.835 262.691 442.527 264.633C428.568 269.739 413.561 274.858 397.505 279.992L382.642 247.173C382.642 247.173 397.997 237.412 421.471 225.009C433.857 218.453 448.503 211.17 464.349 204.198C508.565 184.74 562.158 167.57 602.166 175.458Z" fill="white"/>
<path id="Vector_29" d="M493.918 207.32C486.428 210.628 478.013 210.087 469.913 210.649C467.505 210.751 465.117 211.149 462.796 211.836C458.215 213.712 454.037 216.543 450.509 220.16C450.03 220.508 449.671 221.012 449.486 221.596C449.433 222.202 449.571 222.809 449.88 223.323C451.673 227.192 453.736 230.914 456.053 234.457C458.805 238.619 462.049 243.052 461.951 248.172C461.672 252.092 460.234 255.82 457.842 258.827L457.252 259.701C454.416 263.743 451.336 267.587 448.032 271.209C445.594 273.873 447.167 282.01 441.269 280.054C436.137 278.368 438.634 271.917 440.384 268.525L442.35 264.654L445.653 258.182C448.169 253.291 450.725 247.485 448.602 242.386C447.108 238.827 443.667 236.684 440.443 234.769C434.358 230.951 427.978 227.686 421.373 225.009C433.758 218.453 448.405 211.17 464.251 204.198C474.596 205.117 484.988 205.277 495.353 204.677C496.218 205.551 494.999 206.841 493.918 207.32Z" fill="url(#paint8_linear)"/>
<path id="Vector_30" d="M476.421 244.072C485.346 244.072 492.581 236.413 492.581 226.965C492.581 217.517 485.346 209.858 476.421 209.858C467.495 209.858 460.26 217.517 460.26 226.965C460.26 236.413 467.495 244.072 476.421 244.072Z" fill="#68E1FD"/>
<path id="Vector_31" d="M476.421 238.037C482.501 238.037 487.43 232.819 487.43 226.382C487.43 219.946 482.501 214.728 476.421 214.728C470.34 214.728 465.411 219.946 465.411 226.382C465.411 232.819 470.34 238.037 476.421 238.037Z" fill="url(#paint9_linear)"/>
<path id="Vector_32" d="M452.258 189.713C452.258 189.817 449.939 189.401 449.998 189.526C450.528 190.188 451.203 190.702 451.964 191.024C454.745 192.213 457.595 193.214 460.496 194.021C463.386 194.333 464.782 191.441 465.686 189.006C466.414 187.05 467.161 185.093 467.928 183.158C468.516 181.913 468.889 180.567 469.028 179.183C469.057 178.865 469.017 178.545 468.911 178.247C468.723 177.863 468.408 177.566 468.026 177.414C467.446 177.164 466.797 177.164 466.217 177.414C465.155 177.893 464.664 179.162 464.133 180.244C462.895 182.721 460.948 184.74 459.887 187.299C459.092 187.352 458.31 187.076 457.704 186.529L454.264 184.157C454.098 184.017 453.902 183.924 453.694 183.886C453.524 183.877 453.354 183.912 453.2 183.988C453.046 184.065 452.911 184.18 452.809 184.323C452.191 185.114 451.82 186.088 451.747 187.112C451.649 187.634 451.649 188.172 451.747 188.694C451.87 189.058 452.042 189.401 452.258 189.713V189.713Z" fill="#FCAB9A"/>
<path id="Vector_33" d="M454.913 184.053L456.132 184.844C456.308 184.844 456.485 185.052 456.544 185.26C456.584 185.41 456.584 185.568 456.544 185.718L455.738 189.505C455.493 191.201 454.917 192.824 454.048 194.271C453.576 194.958 450.116 192.419 449.526 192.086C448.054 191.052 446.769 189.748 445.731 188.236C445.251 187.62 444.884 186.914 444.65 186.155C444.295 184.235 444.573 182.244 445.436 180.515C446.813 177.664 449.133 179.079 450.882 180.827C452.127 182.034 453.477 183.113 454.913 184.053V184.053Z" fill="#68E1FD"/>
<path id="Vector_34" d="M432.716 278.576C432.776 278.849 432.913 279.096 433.11 279.284C435.913 282.178 439.254 284.425 442.92 285.881C443.143 286.013 443.392 286.084 443.647 286.089C443.892 286.035 444.11 285.889 444.261 285.679C444.413 285.469 444.488 285.209 444.473 284.945C444.424 284.417 444.24 283.914 443.942 283.488C443.221 282.279 442.413 281.131 441.524 280.054C440.696 279.33 440.167 278.292 440.05 277.161C440.127 276.598 440.265 276.047 440.462 275.517C441.052 273.166 437.356 272.687 435.803 273.249C434.925 273.813 434.187 274.59 433.65 275.517C433.113 276.443 432.793 277.492 432.716 278.576Z" fill="#FCAB9A"/>
<path id="Vector_35" d="M423.673 212.481C423.673 212.481 416.969 222.387 423.869 231.211C428.647 237.329 435.823 241.491 442.428 244.988C443.588 245.612 444.965 246.111 446.085 246.861C448.268 248.317 446.931 249.545 445.771 251.481C442.861 256.434 439.925 261.352 436.963 266.236C435.251 268.708 434.076 271.551 433.523 274.56L441.013 276.974C445.048 269.692 449.652 262.779 454.775 256.309C456.997 253.52 459.867 250.065 459.454 246.195C458.936 242.611 457.448 239.264 455.168 236.559L441.151 219.328L423.673 212.481Z" fill="#473F47"/>
<path id="Vector_36" d="M456.23 165.136C456.466 165.864 457.134 166.447 457.232 167.217C457.331 167.987 456.584 168.902 456.092 169.756C455.601 170.609 455.266 172.253 454.598 173.398C454.478 173.649 454.285 173.854 454.048 173.98C453.833 174.063 453.607 174.105 453.379 174.105C452.486 174.078 451.599 173.924 450.745 173.647C450.593 173.545 450.412 173.501 450.234 173.522C450.084 173.616 449.972 173.764 449.919 173.939C448.919 176.128 448.44 178.543 448.523 180.973C448.523 181.764 448.523 182.763 447.914 183.158C447.692 183.311 447.43 183.384 447.167 183.366C445.436 183.366 444.119 181.722 443.235 180.099C442.511 178.64 441.95 177.096 441.563 175.5C441.423 175.036 441.369 174.548 441.406 174.064C441.498 173.499 441.684 172.956 441.957 172.461C442.829 170.658 443.534 168.769 444.06 166.821C444.519 164.27 445.341 161.807 446.498 159.517C446.947 158.789 447.6 158.229 448.366 157.914C449.24 157.712 450.15 157.762 451 158.06C452.776 158.361 454.374 159.375 455.463 160.89C455.797 161.431 455.955 164.199 456.23 165.136Z" fill="#FCAB9A"/>
<path id="Vector_37" d="M438.988 220.618C437.486 220.871 435.951 220.779 434.486 220.347C432.338 219.892 430.141 219.759 427.959 219.952C426.662 220.296 425.393 220.748 424.164 221.305C423.167 221.589 422.124 221.641 421.106 221.458C420.087 221.274 419.119 220.86 418.266 220.243C418.266 219.931 418.266 219.598 418.266 219.286C418.561 216.497 417.46 212.543 418.266 209.858C421.156 199.141 423.614 191.128 429.374 181.93C431.026 179.287 437.533 175.895 440.207 174.48C440.815 174.134 441.485 173.928 442.173 173.876C442.965 173.91 443.739 174.138 444.434 174.542C446.813 175.77 447.737 178.059 448.897 180.432C450.248 182.849 451.168 185.508 451.61 188.277C451.905 191.857 453.104 195.207 451.177 198.537C448.523 203.22 444.119 206.383 441.662 211.44C441.226 212.171 440.982 213.011 440.954 213.875C440.954 215.082 441.76 216.185 441.76 217.392C441.68 218.171 441.368 218.903 440.87 219.482C440.372 220.062 439.713 220.46 438.988 220.618V220.618Z" fill="#68E1FD"/>
<path id="Vector_38" d="M454.146 203.74C455.09 204.198 456.112 204.593 456.918 204.926C461.538 206.485 466.329 207.408 471.171 207.673C477.263 208.488 483.419 208.606 489.534 208.027C492.031 207.824 494.452 207.02 496.611 205.675C497.241 205.238 497.889 204.448 497.575 203.719C497.392 203.395 497.117 203.14 496.788 202.991C494.427 201.672 491.764 201.081 489.101 201.284C489.101 200.306 488.865 199.058 487.961 198.974C487.057 198.891 486.526 200.202 485.995 201.055C484.815 203.137 482.063 203.365 479.861 203.345C474.772 203.424 469.691 202.872 464.723 201.701C462.232 201.072 459.818 200.143 457.527 198.933C456.053 198.142 453.084 194.875 451.629 196.623C450.174 198.371 448.818 199.536 450.784 201.388C451.786 202.348 452.919 203.141 454.146 203.74V203.74Z" fill="#FCAB9A"/>
<path id="Vector_39" d="M446.478 183.657C446.478 183.657 454.185 195.166 455.306 195.853C456.426 196.539 448.385 204.905 448.385 204.905C448.385 204.905 439.067 194.229 437.985 188.777C436.904 183.324 441.721 179.578 446.478 183.657Z" fill="#68E1FD"/>
<path id="Vector_40" d="M455.404 159.766C455.073 160.245 454.653 160.648 454.169 160.948C453.686 161.249 453.149 161.442 452.593 161.514C451.624 161.678 450.645 161.768 449.663 161.785C449.663 161.785 449.486 161.785 449.427 161.785C449.392 161.827 449.365 161.877 449.348 161.93C449.331 161.984 449.325 162.041 449.329 162.097C449.288 162.896 449.092 163.678 448.754 164.394C448.416 165.11 447.943 165.745 447.363 166.259C447.211 166.36 447.088 166.505 447.009 166.676C446.93 166.918 446.93 167.182 447.009 167.425C447.147 168.258 447.147 169.11 447.009 169.943C446.897 170.789 446.524 171.572 445.948 172.17C445.804 172.274 445.7 172.429 445.653 172.607C445.652 172.761 445.693 172.913 445.771 173.044C446.041 173.913 445.985 174.86 445.613 175.687C444.874 175.086 444.018 174.666 443.107 174.458C442.196 174.249 441.252 174.257 440.345 174.48C439.793 174.53 439.27 174.763 438.85 175.146C436.216 178.08 434.053 181.555 431.281 184.386C430.102 185.593 428.784 186.654 427.683 187.965C426.023 190.109 424.696 192.518 423.751 195.103C423.03 197.13 422.073 199.052 420.901 200.826C420.312 201.708 419.564 202.458 418.7 203.033C417.836 203.608 416.874 203.997 415.868 204.177C414.915 204.26 413.957 204.133 413.053 203.803C412.15 203.474 411.321 202.949 410.619 202.262C409.391 201.072 408.515 199.53 408.097 197.824C407.678 196.118 407.735 194.32 408.259 192.648C408.516 192.13 408.586 191.531 408.456 190.962C408.303 190.647 408.089 190.371 407.827 190.15C406.622 188.821 405.949 187.05 405.949 185.208C405.949 183.365 406.622 181.594 407.827 180.265C409.144 178.954 412.309 177.685 412.486 175.52C412.663 173.356 410.835 171.212 411.582 168.715C411.852 167.956 412.245 167.252 412.742 166.634C413.69 165.16 414.975 163.964 416.477 163.159C417.997 162.616 419.592 162.342 421.196 162.347C426.347 161.972 431.733 160.266 435.135 156.104C435.9 155.025 436.741 154.009 437.651 153.065C438.718 152.192 439.932 151.542 441.229 151.151C444.348 149.887 447.79 149.836 450.941 151.005C452.036 151.489 453.014 152.229 453.8 153.17C454.587 154.11 455.162 155.227 455.483 156.437C455.695 156.965 455.798 157.536 455.785 158.11C455.771 158.685 455.641 159.25 455.404 159.766V159.766Z" fill="#E44B0D"/>
<path id="Vector_41" d="M454.834 168.778C454.077 168.75 453.323 168.681 452.573 168.569C452.357 169.006 453.34 170.65 453.556 170.775C453.66 170.871 453.792 170.923 453.93 170.923C454.067 170.923 454.199 170.871 454.303 170.775C454.39 170.644 454.45 170.495 454.48 170.338L454.834 168.757" fill="white"/>
<path id="Vector_42" d="M453.065 165.24C453.39 165.24 453.654 164.96 453.654 164.615C453.654 164.27 453.39 163.991 453.065 163.991C452.739 163.991 452.475 164.27 452.475 164.615C452.475 164.96 452.739 165.24 453.065 165.24Z" fill="#231F20"/>
<path id="Vector_43" d="M467.109 172.485L466.259 172.314C465.726 172.207 465.211 172.577 465.11 173.142L464.029 179.152C463.927 179.717 464.277 180.261 464.81 180.369L465.66 180.54C466.193 180.648 466.708 180.277 466.81 179.713L467.891 173.702C467.992 173.138 467.642 172.593 467.109 172.485Z" fill="#68E1FD"/>
<path id="Vector_44" d="M465.391 172.981C464.875 173.039 464.383 173.247 463.971 173.581C463.558 173.915 463.24 174.363 463.052 174.875C462.889 175.543 462.922 176.247 463.147 176.893C463.372 177.54 463.778 178.099 464.31 178.496C465.391 179.264 466.633 179.743 467.928 179.891C468.117 179.959 468.318 179.98 468.516 179.951C468.714 179.922 468.903 179.844 469.068 179.724C469.237 179.527 469.347 179.28 469.382 179.017C469.692 178.089 469.819 177.105 469.756 176.124C469.486 175.145 468.903 174.296 468.107 173.723C467.31 173.15 466.35 172.887 465.391 172.981Z" fill="#FCAB9A"/>
<path id="Vector_45" d="M461.813 168.507L461.617 170.879C461.552 171.194 461.606 171.523 461.768 171.795C461.93 172.067 462.186 172.262 462.482 172.336C466.249 172.616 469.936 173.632 473.354 175.333C475.207 176.437 476.97 177.704 478.623 179.121C479.291 179.682 480.254 179.121 480.412 177.914L482.161 165.427C482.319 164.324 481.572 163.554 480.785 163.97C477.502 165.739 470.129 168.986 463.307 166.988C462.58 166.8 461.892 167.529 461.813 168.507Z" fill="#03D0FF"/>
<path id="Vector_46" d="M433.188 276.017C432.247 276.658 431.551 277.631 431.222 278.764C431.114 279.115 431.114 279.494 431.222 279.846C431.36 280.159 431.57 280.431 431.832 280.637C434.976 283.601 438.513 286.062 442.33 287.941C442.814 288.204 443.342 288.366 443.883 288.42C444.152 288.452 444.424 288.41 444.672 288.297C444.92 288.183 445.136 288.004 445.299 287.775C445.486 287.442 445.581 287.06 445.574 286.672C445.595 285.958 445.48 285.246 445.235 284.58C444.99 283.914 444.621 283.307 444.149 282.796C443.677 282.285 443.112 281.88 442.489 281.606C441.866 281.331 441.197 281.193 440.521 281.199C440.037 281.24 439.551 281.24 439.067 281.199C438.614 281.077 438.187 280.865 437.808 280.574C436.775 279.937 435.801 279.198 434.899 278.368C434.29 277.617 433.719 276.832 433.188 276.017V276.017Z" fill="#473F47"/>
</g>
<defs>
<linearGradient id="paint0_linear" x1="616" y1="68" x2="24" y2="444" gradientUnits="userSpaceOnUse">
<stop offset="0.00760175" stop-color="#0D5D80"/>
<stop offset="1" stop-color="#0D42FE" stop-opacity="0"/>
</linearGradient>
<linearGradient id="paint1_linear" x1="76820.3" y1="29503.9" x2="83144.3" y2="78925.6" gradientUnits="userSpaceOnUse">
<stop offset="0.01"/>
<stop offset="0.08" stop-opacity="0.69"/>
<stop offset="0.21" stop-opacity="0.32"/>
<stop offset="1" stop-opacity="0"/>
</linearGradient>
<linearGradient id="paint2_linear" x1="63990.2" y1="7786.1" x2="62350.1" y2="42904.7" gradientUnits="userSpaceOnUse">
<stop offset="0.01" stop-opacity="0.69"/>
<stop offset="0.08" stop-opacity="0.69"/>
<stop offset="0.21" stop-opacity="0.32"/>
<stop offset="1" stop-opacity="0"/>
</linearGradient>
<linearGradient id="paint3_linear" x1="23166.1" y1="8313.65" x2="22070.4" y2="25770.4" gradientUnits="userSpaceOnUse">
<stop offset="0.01" stop-color="#0BA3C7"/>
<stop offset="0.08" stop-opacity="0.69"/>
<stop offset="0.21" stop-opacity="0.32"/>
<stop offset="1" stop-opacity="0"/>
</linearGradient>
<linearGradient id="paint4_linear" x1="10647.5" y1="5811.24" x2="10483.6" y2="7149.98" gradientUnits="userSpaceOnUse">
<stop offset="0.01"/>
<stop offset="0.08" stop-opacity="0.69"/>
<stop offset="0.21" stop-opacity="0.32"/>
<stop offset="1" stop-opacity="0"/>
</linearGradient>
<linearGradient id="paint5_linear" x1="76655.8" y1="8574.31" x2="95105.9" y2="208267" gradientUnits="userSpaceOnUse">
<stop offset="0.01"/>
<stop offset="0.08" stop-opacity="0.69"/>
<stop offset="0.21" stop-opacity="0.32"/>
<stop offset="1" stop-opacity="0"/>
</linearGradient>
<linearGradient id="paint6_linear" x1="63484.7" y1="7776.04" x2="64158.4" y2="25123.8" gradientUnits="userSpaceOnUse">
<stop offset="0.01" stop-opacity="0.37"/>
<stop offset="0.08" stop-opacity="0.69"/>
<stop offset="0.21" stop-opacity="0.32"/>
<stop offset="1" stop-opacity="0"/>
</linearGradient>
<linearGradient id="paint7_linear" x1="59742.7" y1="14543.4" x2="61366.1" y2="29041.4" gradientUnits="userSpaceOnUse">
<stop offset="0.01" stop-opacity="0.79"/>
<stop offset="0.08" stop-opacity="0.69"/>
<stop offset="0.21" stop-opacity="0.32"/>
<stop offset="1" stop-opacity="0"/>
</linearGradient>
<linearGradient id="paint8_linear" x1="16421.5" y1="12444.9" x2="26323.6" y2="11697.1" gradientUnits="userSpaceOnUse">
<stop offset="0.01"/>
<stop offset="0.08" stop-opacity="0.69"/>
<stop offset="0.21" stop-opacity="0.32"/>
<stop offset="1" stop-opacity="0"/>
</linearGradient>
<linearGradient id="paint9_linear" x1="5065.66" y1="2067.74" x2="7875.37" y2="4394.3" gradientUnits="userSpaceOnUse">
<stop offset="0.01"/>
<stop offset="0.08" stop-opacity="0.69"/>
<stop offset="0.21" stop-opacity="0.32"/>
<stop offset="1" stop-opacity="0"/>
</linearGradient>
<clipPath id="clip0">
<rect width="717" height="525" fill="white"/>
</clipPath>
</defs>
</svg>
